<svg width="16" height="18" viewBox="0 0 16 18" fill="none" xmlns="http://www.w3.org/2000/svg">
<path fill-rule="evenodd" clip-rule="evenodd" d="M5.04349 1.15515C5.35605 0.842587 5.77998 0.666992 6.222 0.666992H9.55534C9.99737 0.666992 10.4213 0.842587 10.7338 1.15515C11.0464 1.46771 11.222 1.89163 11.222 2.33366V4.00033H13.7123C13.7181 4.00026 13.724 4.00026 13.7299 4.00033H14.5553C15.0156 4.00033 15.3887 4.37342 15.3887 4.83366C15.3887 5.2939 15.0156 5.66699 14.5553 5.66699H14.4888L13.7217 14.8718C13.7118 15.5211 13.4496 16.1416 12.9898 16.6014C12.5209 17.0703 11.885 17.3337 11.222 17.3337H4.55534C3.8923 17.3337 3.25641 17.0703 2.78757 16.6014C2.32773 16.1416 2.06553 15.5211 2.05563 14.8718L1.28856 5.66699H1.22201C0.761768 5.66699 0.388672 5.2939 0.388672 4.83366C0.388672 4.37342 0.761768 4.00033 1.22201 4.00033H2.04745C2.05334 4.00026 2.05922 4.00026 2.06508 4.00033H4.55534V2.33366C4.55534 1.89163 4.73093 1.46771 5.04349 1.15515ZM2.961 5.66699L3.71913 14.7645C3.72104 14.7875 3.72201 14.8106 3.72201 14.8337C3.72201 15.0547 3.8098 15.2666 3.96608 15.4229C4.12236 15.5792 4.33433 15.667 4.55534 15.667H11.222C11.443 15.667 11.655 15.5792 11.8113 15.4229C11.9675 15.2666 12.0553 15.0547 12.0553 14.8337C12.0553 14.8106 12.0563 14.7875 12.0582 14.7645L12.8163 5.66699H2.961ZM9.55534 4.00033H6.222V2.33366H9.55534V4.00033ZM6.222 7.33366C6.68224 7.33366 7.05534 7.70676 7.05534 8.16699V13.167C7.05534 13.6272 6.68224 14.0003 6.222 14.0003C5.76177 14.0003 5.38867 13.6272 5.38867 13.167V8.16699C5.38867 7.70676 5.76177 7.33366 6.222 7.33366ZM9.55534 7.33366C10.0156 7.33366 10.3887 7.70676 10.3887 8.16699V13.167C10.3887 13.6272 10.0156 14.0003 9.55534 14.0003C9.0951 14.0003 8.722 13.6272 8.722 13.167V8.16699C8.722 7.70676 9.0951 7.33366 9.55534 7.33366Z" fill="black"/>
</svg>
