<svg width="15" height="15" viewBox="0 0 15 15" fill="none" xmlns="http://www.w3.org/2000/svg">
<path fill-rule="evenodd" clip-rule="evenodd" d="M9.38275 0.994004C9.98106 0.395696 10.7925 0.0595703 11.6387 0.0595703C12.4848 0.0595703 13.2963 0.395696 13.8946 0.994004C14.4929 1.59231 14.829 2.40379 14.829 3.24993C14.829 4.09606 14.4929 4.90754 13.8946 5.50585L5.14459 14.2558C4.98831 14.4121 4.77635 14.4999 4.55534 14.4999H1.22201C0.761768 14.4999 0.388672 14.1268 0.388672 13.6666V10.3333C0.388672 10.1122 0.476469 9.90028 0.63275 9.744L8.54404 1.83272C8.54582 1.8309 8.54761 1.82909 8.54942 1.82729C8.55122 1.82549 8.55303 1.82369 8.55484 1.82191L9.38275 0.994004ZM9.1387 3.59508L2.05534 10.6784V12.8333H4.21016L11.2935 5.7499L9.1387 3.59508ZM12.472 4.57139L10.3172 2.41657L10.5613 2.17252C10.847 1.88677 11.2346 1.72624 11.6387 1.72624C12.0428 1.72624 12.4303 1.88677 12.7161 2.17252C13.0018 2.45826 13.1624 2.84582 13.1624 3.24993C13.1624 3.65403 13.0018 4.04159 12.7161 4.32734L12.472 4.57139Z" fill="black"/>
</svg>
