<svg width="14" height="14" viewBox="0 0 14 14" fill="none" xmlns="http://www.w3.org/2000/svg">
<path fill-rule="evenodd" clip-rule="evenodd" d="M1.30753 0.37899C1.39616 0.347908 1.4894 0.332031 1.58332 0.332031H12.4167C12.5106 0.332031 12.6038 0.347908 12.6924 0.37899C12.9325 0.463171 13.1501 0.601176 13.3285 0.78243C13.507 0.963686 13.6416 1.18338 13.722 1.42469C13.8024 1.666 13.8266 1.92252 13.7926 2.1746C13.7586 2.42668 13.6673 2.66763 13.5258 2.87899C13.5029 2.91313 13.4776 2.94553 13.4499 2.97593L9.49999 7.32087V12.832C9.49999 13.1477 9.32165 13.4362 9.03933 13.5774C8.75701 13.7185 8.41917 13.6881 8.16665 13.4987L4.83332 10.9987C4.62348 10.8413 4.49999 10.5943 4.49999 10.332V7.32087L0.550038 2.97593C0.522403 2.94553 0.497054 2.91313 0.474198 2.87899C0.332683 2.66763 0.241424 2.42668 0.207411 2.1746C0.173399 1.92252 0.197535 1.666 0.277972 1.42469C0.358408 1.18338 0.493011 0.963685 0.671468 0.78243C0.849925 0.601175 1.0675 0.463171 1.30753 0.37899ZM1.91408 1.9987L5.94994 6.43814C6.08939 6.59153 6.16665 6.79139 6.16665 6.9987V9.91537L7.83332 11.1654V6.9987C7.83332 6.79139 7.91059 6.59153 8.05004 6.43814L12.0859 1.9987H1.91408Z" fill="#141517"/>
</svg>
