<svg width="1340" height="324" viewBox="0 0 1340 324" fill="none" xmlns="http://www.w3.org/2000/svg">
<g clip-path="url(#clip0_71_2134)">
<g clip-path="url(#clip1_71_2134)">
<path d="M161.095 11.1165H158.031V32.311H161.095V11.1165Z" fill="black"/>
<path d="M161.095 291.589H158.031V312.783H161.095V291.589Z" fill="black"/>
<path d="M310.383 160.431H289.188V163.494H310.383V160.431Z" fill="black"/>
<path d="M29.9113 160.431H8.7168V163.494H29.9113V160.431Z" fill="black"/>
<path d="M134.887 13.1609L131.87 13.6929L135.55 34.5654L138.567 34.0334L134.887 13.1609Z" fill="black"/>
<path d="M183.564 289.344L180.547 289.876L184.228 310.748L187.245 310.216L183.564 289.344Z" fill="black"/>
<path d="M307.82 134.23L286.948 137.918L287.481 140.935L308.353 137.247L307.82 134.23Z" fill="black"/>
<path d="M31.6156 182.936L10.7438 186.62L11.2763 189.637L32.1482 185.953L31.6156 182.936Z" fill="black"/>
<path d="M109.403 19.6946L106.524 20.7424L113.773 40.6587L116.652 39.6109L109.403 19.6946Z" fill="black"/>
<path d="M205.359 283.229L202.48 284.277L209.729 304.193L212.607 303.146L205.359 283.229Z" fill="black"/>
<path d="M300.774 108.933L280.856 116.179L281.904 119.058L301.821 111.812L300.774 108.933Z" fill="black"/>
<path d="M37.238 204.859L17.3217 212.108L18.3695 214.987L38.2858 207.738L37.238 204.859Z" fill="black"/>
<path d="M85.4646 30.559L82.8114 32.0908L93.4087 50.4458L96.0619 48.914L85.4646 30.559Z" fill="black"/>
<path d="M225.694 273.454L223.041 274.985L233.638 293.34L236.291 291.808L225.694 273.454Z" fill="black"/>
<path d="M289.399 85.1715L271.044 95.7688L272.576 98.422L290.931 87.8248L289.399 85.1715Z" fill="black"/>
<path d="M46.5299 225.451L28.1749 236.049L29.7068 238.702L48.0617 228.105L46.5299 225.451Z" fill="black"/>
<path d="M63.7564 45.4094L61.4095 47.3787L75.0331 63.6146L77.38 61.6453L63.7564 45.4094Z" fill="black"/>
<path d="M244.035 260.284L241.688 262.253L255.311 278.489L257.658 276.52L244.035 260.284Z" fill="black"/>
<path d="M274.093 63.8133L257.859 77.4397L259.829 79.7863L276.062 66.1599L274.093 63.8133Z" fill="black"/>
<path d="M59.2685 244.1L43.0349 257.726L45.0046 260.073L61.2382 246.446L59.2685 244.1Z" fill="black"/>
<path d="M45.0004 63.8289L43.0311 66.1758L59.2671 79.7993L61.2363 77.4524L45.0004 63.8289Z" fill="black"/>
<path d="M259.858 244.088L257.888 246.435L274.124 260.058L276.094 257.711L259.858 244.088Z" fill="black"/>
<path d="M255.348 45.4515L241.721 61.6851L244.068 63.6547L257.694 47.4212L255.348 45.4515Z" fill="black"/>
<path d="M75.0665 260.293L61.4401 276.526L63.7866 278.496L77.413 262.263L75.0665 260.293Z" fill="black"/>
<path d="M29.6987 85.1932L28.1669 87.8464L46.5218 98.4437L48.0537 95.7905L29.6987 85.1932Z" fill="black"/>
<path d="M272.585 225.427L271.053 228.081L289.408 238.678L290.94 236.025L272.585 225.427Z" fill="black"/>
<path d="M233.641 30.5508L223.044 48.9058L225.697 50.4376L236.294 32.0826L233.641 30.5508Z" fill="black"/>
<path d="M93.4068 273.486L82.8096 291.841L85.4628 293.373L96.06 275.018L93.4068 273.486Z" fill="black"/>
<path d="M18.3336 108.901L17.2858 111.78L37.2021 119.029L38.2499 116.15L18.3336 108.901Z" fill="black"/>
<path d="M281.883 204.84L280.835 207.719L300.751 214.968L301.799 212.089L281.883 204.84Z" fill="black"/>
<path d="M209.703 19.719L202.454 39.6353L205.333 40.6831L212.582 20.7668L209.703 19.719Z" fill="black"/>
<path d="M113.764 283.267L106.519 303.184L109.398 304.231L116.643 284.314L113.764 283.267Z" fill="black"/>
<path d="M11.2916 134.241L10.7596 137.258L31.6321 140.939L32.1641 137.922L11.2916 134.241Z" fill="black"/>
<path d="M287.458 182.953L286.926 185.97L307.799 189.65L308.331 186.633L287.458 182.953Z" fill="black"/>
<path d="M184.227 13.1535L180.542 34.0254L183.56 34.5579L187.244 13.686L184.227 13.1535Z" fill="black"/>
<path d="M135.538 289.344L131.85 310.216L134.867 310.749L138.555 289.877L135.538 289.344Z" fill="black"/>
</g>
<path d="M239.916 164.094L287.309 160.444L232.868 149.76L169.421 137.31C169.649 147.723 170.266 157.559 171.227 166.849C171.227 166.87 171.231 166.892 171.235 166.914C171.235 166.939 171.238 166.961 171.242 166.986C171.856 172.9 174.829 178.32 179.475 182.032C184.016 185.66 190.818 189.863 200.94 194.561L205.955 211.686L176.512 199.749C206.301 332.737 318.442 323.775 318.442 323.775L239.916 164.094Z" fill="#A3257C"/>
<path d="M215.189 113.812L162.633 6.9397L159.219 0L155.806 6.9397L103.25 113.808L148.317 94.0867L149.014 52.1127C149.014 46.4982 153.566 35.4026 159.183 35.4026C164.801 35.4026 169.353 46.4982 169.353 52.1127L170.606 94.0578L215.185 113.812H215.189Z" fill="#A3257C"/>
<path d="M31.1329 160.444L78.5258 164.094L0 323.775C0 323.775 112.141 332.737 141.93 199.749L112.487 211.686L117.502 194.561C127.624 189.863 134.426 185.66 138.967 182.032C143.613 178.32 146.586 172.9 147.2 166.986C147.2 166.961 147.204 166.939 147.207 166.914C147.207 166.892 147.211 166.87 147.215 166.849C148.179 157.562 148.793 147.727 149.021 137.31L85.5739 149.76L31.1329 160.444Z" fill="#A3257C"/>
<path d="M420.608 197.739C410.083 197.739 400.45 196.045 391.709 192.655C383.147 189.088 375.744 184.093 369.501 177.671C363.257 171.071 358.441 163.222 355.051 154.124C351.662 145.027 349.968 134.77 349.968 123.353C349.968 108.191 352.911 95.0793 358.798 84.0195C364.684 72.9596 372.979 64.3972 383.682 58.3321C394.385 52.2671 406.694 49.2345 420.608 49.2345C429.884 49.2345 438 50.3048 444.957 52.4454C451.914 54.5861 457.89 57.5294 462.885 61.2755C467.666 64.6903 471.384 68.7589 474.04 73.4812C474.26 73.8717 474.67 74.1191 475.118 74.1191V74.1191C475.762 74.1191 476.293 73.618 476.332 72.9759L477.118 59.7709C477.389 55.2057 481.171 51.6427 485.744 51.6427H511.772C516.545 51.6427 520.414 55.5117 520.414 60.2843V186.422C520.414 191.195 516.545 195.064 511.772 195.064H483.835C479.062 195.064 475.193 191.195 475.193 186.422V173.227C475.193 172.578 474.667 172.052 474.018 172.052V172.052C473.588 172.052 473.193 172.288 472.981 172.662C468.675 180.225 461.831 186.265 452.449 190.782C442.995 195.42 432.381 197.739 420.608 197.739ZM434.522 163.49C442.906 163.49 450.13 161.884 456.195 158.673C462.439 155.284 467.077 150.824 470.109 145.294C473.32 139.586 474.926 133.343 474.926 126.564V119.607C474.926 112.829 473.32 106.763 470.109 101.412C467.077 95.882 462.439 91.5116 456.195 88.3007C450.13 85.0898 442.906 83.4843 434.522 83.4843C426.673 83.4843 419.805 85.0006 413.918 88.0331C408.21 91.0656 403.661 95.6144 400.272 101.68C397.061 107.566 395.456 114.791 395.456 123.353C395.456 131.916 397.061 139.229 400.272 145.294C403.483 151.181 408.032 155.73 413.918 158.941C419.805 161.973 426.673 163.49 434.522 163.49Z" fill="#A3257C"/>
<path d="M558.192 195.064C553.419 195.064 549.55 191.195 549.55 186.422V60.2843C549.55 55.5117 553.419 51.6427 558.192 51.6427H585.861C590.634 51.6427 594.503 55.5117 594.503 60.2843V186.422C594.503 191.195 590.634 195.064 585.861 195.064H558.192ZM566.14 33.18C556.978 33.18 549.55 25.7525 549.55 16.5902V16.5902C549.55 7.42797 556.978 0.000488281 566.14 0.000488281H577.913C587.076 0.000488281 594.503 7.42797 594.503 16.5902V16.5902C594.503 25.7525 587.076 33.18 577.913 33.18H566.14Z" fill="#A3257C"/>
<path d="M632.465 195.064C627.693 195.064 623.824 191.195 623.824 186.422V60.2843C623.824 55.5117 627.693 51.6427 632.465 51.6427H656.442C660.979 51.6427 664.743 55.1506 665.062 59.6758L666.024 73.3065C666.067 73.915 666.574 74.3867 667.184 74.3867V74.3867C667.66 74.3867 668.087 74.0947 668.271 73.6545C671.322 66.3293 676.129 60.5083 682.69 56.1915C689.469 51.7319 697.585 49.5021 707.04 49.5021C709.359 49.5021 711.499 49.5913 713.462 49.7697V49.7697C716.61 49.7697 718.813 52.5451 718.813 55.6937V84.2342C718.813 87.6056 715.753 90.1647 712.391 89.9061V89.9061C710.251 89.7278 708.11 89.6386 705.969 89.6386C698.299 89.6386 691.699 90.8872 686.169 93.3846C680.817 95.882 676.625 99.8956 673.593 105.426C670.56 110.955 668.955 118.091 668.776 126.832V186.422C668.776 191.195 664.907 195.064 660.135 195.064H632.465Z" fill="#A3257C"/>
<path d="M748.025 239.749C743.252 239.749 739.383 235.88 739.383 231.107V60.2843C739.383 55.5117 743.252 51.6427 748.025 51.6427H773.785C778.358 51.6427 782.14 55.2057 782.412 59.7708L783.196 72.9567C783.235 73.6096 783.776 74.1191 784.43 74.1191V74.1191C784.869 74.1191 785.274 73.8856 785.502 73.5108C789.79 66.4734 796.269 60.7003 804.939 56.1915C813.859 51.5535 825.186 49.2345 838.922 49.2345C849.446 49.2345 858.99 51.0184 867.552 54.5861C876.115 57.9754 883.518 62.8809 889.761 69.3028C896.004 75.7246 900.821 83.4843 904.21 92.5819C907.599 101.68 909.294 111.937 909.294 123.353C909.294 138.516 906.351 151.627 900.464 162.687C894.577 173.747 886.372 182.398 875.847 188.642C865.322 194.707 852.925 197.739 838.654 197.739C830.805 197.739 823.402 196.669 816.445 194.528C809.667 192.388 803.691 189.445 798.518 185.698C793.507 181.897 789.417 177.51 786.247 172.538C786.055 172.237 785.724 172.052 785.368 172.052V172.052C784.798 172.052 784.336 172.514 784.336 173.084V231.107C784.336 235.88 780.467 239.749 775.694 239.749H748.025ZM825.008 163.49C832.856 163.49 839.635 161.973 845.343 158.941C851.23 155.73 855.779 151.181 858.99 145.294C862.379 139.229 864.074 131.916 864.074 123.353C864.074 114.791 862.468 107.566 859.257 101.68C856.046 95.7928 851.498 91.3332 845.611 88.3007C839.724 85.0898 832.856 83.4843 825.008 83.4843C816.623 83.4843 809.31 85.0898 803.066 88.3007C797.001 91.5116 792.363 95.882 789.152 101.412C785.941 106.763 784.336 112.829 784.336 119.607V126.564C784.336 131.559 785.228 136.375 787.012 141.013C788.974 145.473 791.65 149.397 795.039 152.787C798.607 156.176 802.888 158.852 807.883 160.814C812.877 162.598 818.586 163.49 825.008 163.49Z" fill="#A3257C"/>
<path d="M1012.82 197.739C999.801 197.739 988.028 196.134 977.503 192.923C966.978 189.534 957.881 184.628 950.21 178.206C942.54 171.784 936.653 164.025 932.55 154.927C928.447 145.651 926.396 135.127 926.396 123.353C926.396 107.834 929.964 94.5441 937.099 83.4843C944.413 72.4245 954.492 63.9512 967.335 58.0646C980.357 51.9995 995.52 48.967 1012.82 48.967C1025.67 48.967 1037.35 50.6616 1047.88 54.0509C1058.58 57.4402 1067.68 62.3458 1075.17 68.7676C1082.84 75.0111 1088.73 82.7708 1092.83 92.0468C1096.93 101.323 1098.98 111.758 1098.98 123.353C1098.98 138.694 1095.42 151.984 1088.28 163.222C1081.14 174.46 1071.15 183.023 1058.31 188.909C1045.47 194.796 1030.3 197.739 1012.82 197.739ZM1012.82 163.222C1021.56 163.222 1028.97 161.617 1035.03 158.406C1041.28 155.016 1046 150.378 1049.21 144.492C1052.42 138.427 1054.03 131.38 1054.03 123.353C1054.03 117.288 1053.14 111.847 1051.35 107.031C1049.57 102.036 1046.89 97.8442 1043.33 94.4549C1039.76 90.8873 1035.39 88.2115 1030.22 86.4276C1025.22 84.4654 1019.42 83.4843 1012.82 83.4843C1004.08 83.4843 996.59 85.0898 990.347 88.3007C984.282 91.5116 979.644 96.1496 976.433 102.215C973.222 108.101 971.616 115.148 971.616 123.353C971.616 129.418 972.508 134.948 974.292 139.943C976.254 144.759 978.93 148.951 982.319 152.519C985.887 155.908 990.168 158.584 995.163 160.546C1000.34 162.33 1006.22 163.222 1012.82 163.222Z" fill="#A3257C"/>
<path d="M1131.22 195.064C1126.45 195.064 1122.58 191.195 1122.58 186.422V60.2843C1122.58 55.5117 1126.45 51.6427 1131.22 51.6427H1155.2C1159.74 51.6427 1163.5 55.1506 1163.82 59.6758L1164.78 73.3065C1164.83 73.915 1165.33 74.3867 1165.94 74.3867V74.3867C1166.42 74.3867 1166.85 74.0947 1167.03 73.6546C1170.08 66.3293 1174.89 60.5083 1181.45 56.1915C1188.23 51.7319 1196.34 49.5021 1205.8 49.5021C1208.12 49.5021 1210.26 49.5913 1212.22 49.7697V49.7697C1215.37 49.7697 1217.57 52.5451 1217.57 55.6937V84.2342C1217.57 87.6055 1214.51 90.1647 1211.15 89.9061V89.9061C1209.01 89.7278 1206.87 89.6386 1204.73 89.6386C1197.06 89.6386 1190.46 90.8872 1184.93 93.3846C1179.58 95.882 1175.38 99.8956 1172.35 105.426C1169.32 110.955 1167.71 118.091 1167.53 126.832V186.422C1167.53 191.195 1163.67 195.064 1158.89 195.064H1131.22Z" fill="#A3257C"/>
<path d="M1299.06 195.064C1291.21 195.064 1284.34 193.815 1278.46 191.318C1272.57 188.642 1268.02 184.717 1264.81 179.544C1261.6 174.193 1259.99 167.503 1259.99 159.476V94.2665C1259.99 89.4939 1256.13 85.6249 1251.35 85.6249H1241.88C1237.11 85.6249 1233.24 81.7559 1233.24 76.9833V60.2843C1233.24 55.5117 1237.11 51.6427 1241.88 51.6427H1251.35C1256.13 51.6427 1259.99 47.7737 1259.99 43.0011V22.3872C1259.99 18.2453 1262.93 14.6858 1267 13.9018L1294.14 8.67106C1299.47 7.64348 1304.41 11.7277 1304.41 17.1564V43.0011C1304.41 47.7738 1308.28 51.6427 1313.05 51.6427H1331.36C1336.13 51.6427 1340 55.5117 1340 60.2843V76.9833C1340 81.7559 1336.13 85.6249 1331.36 85.6249H1313.05C1308.28 85.6249 1304.41 89.4939 1304.41 94.2665V145.294C1304.41 149.754 1305.48 152.787 1307.62 154.392C1309.76 155.997 1313.06 156.8 1317.52 156.8H1331.36C1336.13 156.8 1340 160.669 1340 165.442V186.422C1340 191.195 1336.13 195.064 1331.36 195.064H1299.06Z" fill="#A3257C"/>
<path d="M821.902 323.828V242.439H839.749V323.828H821.902ZM821.902 230.13V211.668H839.749V230.13H821.902ZM844.602 323.828V242.439H861.987L862.449 259.209H863.526C866.5 253.362 870.962 248.9 876.911 245.823C882.963 242.746 889.476 241.208 896.451 241.208C901.682 241.208 906.451 241.874 910.759 243.208C915.067 244.541 918.76 246.695 921.837 249.67C925.016 252.542 927.478 256.439 929.222 261.363C930.965 266.183 931.837 272.132 931.837 279.21V323.828H913.99V282.287C913.99 276.133 913.17 271.056 911.528 267.055C909.887 262.953 907.323 259.927 903.836 257.978C900.451 256.029 896.092 255.055 890.758 255.055C885.117 255.055 880.142 256.285 875.834 258.747C871.629 261.106 868.347 264.388 865.987 268.594C863.628 272.799 862.449 277.774 862.449 283.518V323.828H844.602ZM995.74 325.212C989.688 325.212 984.149 324.238 979.123 322.289C974.2 320.34 969.943 317.52 966.354 313.827C962.764 310.135 959.994 305.724 958.045 300.596C956.199 295.365 955.276 289.569 955.276 283.21C955.276 274.594 956.968 267.158 960.353 260.901C963.738 254.542 968.456 249.67 974.508 246.285C980.662 242.9 987.688 241.208 995.586 241.208C1001.23 241.208 1006.2 241.926 1010.51 243.362C1014.92 244.695 1018.66 246.593 1021.74 249.054C1024.82 251.516 1027.18 254.388 1028.82 257.67H1029.59L1030.2 242.439H1047.13V323.828H1029.28V307.827H1028.51C1025.95 313.058 1021.69 317.263 1015.74 320.443C1009.79 323.622 1003.12 325.212 995.74 325.212ZM1000.82 311.365C1006.77 311.365 1011.84 310.186 1016.05 307.827C1020.36 305.468 1023.64 302.339 1025.9 298.442C1028.15 294.544 1029.28 290.339 1029.28 285.826V279.671C1029.28 275.261 1028.15 271.209 1025.9 267.517C1023.64 263.722 1020.36 260.696 1016.05 258.439C1011.84 256.183 1006.71 255.055 1000.66 255.055C995.227 255.055 990.457 256.183 986.355 258.439C982.252 260.593 979.021 263.773 976.662 267.978C974.405 272.081 973.277 277.158 973.277 283.21C973.277 288.954 974.405 293.98 976.662 298.288C978.918 302.493 982.098 305.724 986.201 307.981C990.304 310.237 995.176 311.365 1000.82 311.365ZM1125.47 325.212C1120.03 325.212 1115.11 324.546 1110.7 323.212C1106.29 321.776 1102.54 319.827 1099.47 317.366C1096.39 314.802 1094.03 311.93 1092.39 308.75H1091.62L1091 323.828H1074.08V211.668H1091.93V258.439H1092.7C1095.26 253.106 1099.52 248.9 1105.47 245.823C1111.41 242.644 1118.08 241.054 1125.47 241.054C1131.62 241.054 1137.16 242.028 1142.08 243.977C1147.01 245.926 1151.26 248.798 1154.85 252.593C1158.44 256.285 1161.16 260.696 1163.01 265.824C1164.96 270.953 1165.93 276.748 1165.93 283.21C1165.93 291.723 1164.24 299.16 1160.85 305.519C1157.47 311.776 1152.75 316.648 1146.7 320.135C1140.65 323.52 1133.57 325.212 1125.47 325.212ZM1120.54 311.212C1126.08 311.212 1130.9 310.135 1135.01 307.981C1139.11 305.724 1142.29 302.544 1144.54 298.442C1146.9 294.236 1148.08 289.159 1148.08 283.21C1148.08 278.8 1147.42 274.851 1146.08 271.363C1144.75 267.876 1142.85 264.901 1140.39 262.44C1138.03 259.978 1135.16 258.132 1131.77 256.901C1128.39 255.567 1124.65 254.901 1120.54 254.901C1114.59 254.901 1109.47 256.08 1105.16 258.439C1100.85 260.799 1097.57 263.927 1095.31 267.825C1093.05 271.722 1091.93 275.979 1091.93 280.595V286.595C1091.93 291.005 1093.05 295.108 1095.31 298.903C1097.57 302.596 1100.85 305.57 1105.16 307.827C1109.47 310.083 1114.59 311.212 1120.54 311.212ZM1211.09 325.366C1204.02 325.366 1197.55 324.392 1191.71 322.443C1185.86 320.494 1180.84 317.725 1176.63 314.135C1172.53 310.442 1169.35 306.032 1167.09 300.903C1164.84 295.672 1163.71 289.826 1163.71 283.364C1163.71 274.645 1165.66 267.158 1169.55 260.901C1173.55 254.542 1179.09 249.67 1186.17 246.285C1193.25 242.9 1201.56 241.208 1211.09 241.208C1218.17 241.208 1224.58 242.182 1230.33 244.131C1236.17 245.977 1241.2 248.747 1245.4 252.439C1249.61 256.132 1252.84 260.593 1255.1 265.824C1257.35 270.953 1258.48 276.799 1258.48 283.364C1258.48 291.877 1256.48 299.313 1252.48 305.673C1248.58 311.93 1243.1 316.802 1236.02 320.289C1228.94 323.674 1220.63 325.366 1211.09 325.366ZM1211.09 311.212C1217.15 311.212 1222.38 310.083 1226.79 307.827C1231.2 305.57 1234.58 302.339 1236.94 298.134C1239.4 293.929 1240.63 289.005 1240.63 283.364C1240.63 279.056 1239.92 275.158 1238.48 271.671C1237.15 268.184 1235.2 265.209 1232.63 262.747C1230.17 260.286 1227.09 258.439 1223.4 257.209C1219.71 255.875 1215.61 255.208 1211.09 255.208C1205.04 255.208 1199.81 256.337 1195.4 258.593C1190.99 260.85 1187.55 264.132 1185.09 268.44C1182.73 272.645 1181.55 277.62 1181.55 283.364C1181.55 287.569 1182.22 291.416 1183.55 294.903C1184.99 298.288 1186.94 301.211 1189.4 303.673C1191.96 306.134 1195.04 308.032 1198.63 309.365C1202.32 310.596 1206.48 311.212 1211.09 311.212ZM1244.91 323.828L1280.45 281.979L1246.6 242.439H1267.83L1291.68 271.979H1292.45L1316.3 242.439H1336.91L1303.99 281.518L1338.76 323.828H1317.68L1292.14 292.903H1291.22L1265.22 323.828H1244.91Z" fill="#A3257C"/>
</g>
<defs>
<clipPath id="clip0_71_2134">
<rect width="1340" height="324" fill="white"/>
</clipPath>
<clipPath id="clip1_71_2134">
<rect x="8.71912" y="11.1167" width="301.666" height="301.666" rx="14.5573" fill="white"/>
</clipPath>
</defs>
</svg>
