<svg width="305" height="305" viewBox="0 0 305 305" fill="none" xmlns="http://www.w3.org/2000/svg">
<g clip-path="url(#clip0_71_2198)">
<g clip-path="url(#clip1_71_2198)">
<path d="M154.144 9.56787H151.232V29.7163H154.144V9.56787Z" fill="#A3257C"/>
<path d="M154.144 276.197H151.232V296.345H154.144V276.197Z" fill="#A3257C"/>
<path d="M296.063 151.512H275.915V154.425H296.063V151.512Z" fill="#A3257C"/>
<path d="M29.4353 151.512H9.28687V154.425H29.4353V151.512Z" fill="#A3257C"/>
<path d="M129.229 11.5113L126.361 12.0171L129.86 31.8594L132.728 31.3537L129.229 11.5113Z" fill="#A3257C"/>
<path d="M175.504 274.063L172.636 274.568L176.135 294.411L179.003 293.905L175.504 274.063Z" fill="#A3257C"/>
<path d="M293.627 126.606L273.786 130.111L274.292 132.979L294.133 129.474L293.627 126.606Z" fill="#A3257C"/>
<path d="M31.0553 172.907L11.2136 176.409L11.7199 179.278L31.5616 175.775L31.0553 172.907Z" fill="#A3257C"/>
<path d="M105.004 17.7224L102.267 18.7185L109.158 37.6518L111.895 36.6557L105.004 17.7224Z" fill="#A3257C"/>
<path d="M196.223 268.25L193.486 269.246L200.377 288.179L203.114 287.183L196.223 268.25Z" fill="#A3257C"/>
<path d="M286.928 102.556L267.994 109.444L268.99 112.181L287.924 105.293L286.928 102.556Z" fill="#A3257C"/>
<path d="M36.3999 193.748L17.4666 200.639L18.4627 203.376L37.396 196.485L36.3999 193.748Z" fill="#A3257C"/>
<path d="M82.2466 28.0511L79.7244 29.5073L89.7986 46.9564L92.3208 45.5001L82.2466 28.0511Z" fill="#A3257C"/>
<path d="M215.554 258.957L213.032 260.413L223.106 277.862L225.629 276.406L215.554 258.957Z" fill="#A3257C"/>
<path d="M276.115 79.9678L258.666 90.042L260.122 92.5642L277.571 82.49L276.115 79.9678Z" fill="#A3257C"/>
<path d="M45.2335 213.324L27.7844 223.398L29.2406 225.92L46.6897 215.846L45.2335 213.324Z" fill="#A3257C"/>
<path d="M61.6097 42.1682L59.3787 44.0403L72.3298 59.4749L74.5609 57.6028L61.6097 42.1682Z" fill="#A3257C"/>
<path d="M232.99 246.437L230.759 248.309L243.71 263.744L245.941 261.872L232.99 246.437Z" fill="#A3257C"/>
<path d="M261.565 59.6634L246.132 72.6172L248.005 74.8479L263.437 61.8941L261.565 59.6634Z" fill="#A3257C"/>
<path d="M57.3432 231.052L41.9109 244.006L43.7834 246.237L59.2157 233.283L57.3432 231.052Z" fill="#A3257C"/>
<path d="M43.7796 59.6784L41.9075 61.9094L57.342 74.8606L59.2141 72.6295L43.7796 59.6784Z" fill="#A3257C"/>
<path d="M248.032 231.04L246.16 233.271L261.595 246.223L263.467 243.992L248.032 231.04Z" fill="#A3257C"/>
<path d="M243.745 42.2081L230.791 57.6404L233.022 59.5129L245.975 44.0805L243.745 42.2081Z" fill="#A3257C"/>
<path d="M72.3616 246.446L59.4077 261.878L61.6385 263.75L74.5923 248.318L72.3616 246.446Z" fill="#A3257C"/>
<path d="M29.2328 79.9885L27.7766 82.5107L45.2256 92.5849L46.6819 90.0627L29.2328 79.9885Z" fill="#A3257C"/>
<path d="M260.131 213.301L258.675 215.823L276.124 225.897L277.58 223.375L260.131 213.301Z" fill="#A3257C"/>
<path d="M223.109 28.0429L213.035 45.4919L215.557 46.9482L225.632 29.4991L223.109 28.0429Z" fill="#A3257C"/>
<path d="M89.7969 258.988L79.7227 276.437L82.2449 277.893L92.3191 260.444L89.7969 258.988Z" fill="#A3257C"/>
<path d="M18.4287 102.527L17.4326 105.263L36.3659 112.155L37.362 109.418L18.4287 102.527Z" fill="#A3257C"/>
<path d="M268.97 193.729L267.974 196.466L286.907 203.357L287.903 200.621L268.97 193.729Z" fill="#A3257C"/>
<path d="M200.353 17.7459L193.462 36.6792L196.199 37.6753L203.09 18.742L200.353 17.7459Z" fill="#A3257C"/>
<path d="M109.149 268.285L102.261 287.22L104.998 288.216L111.886 269.281L109.149 268.285Z" fill="#A3257C"/>
<path d="M11.7345 126.615L11.2288 129.484L31.0711 132.982L31.5768 130.114L11.7345 126.615Z" fill="#A3257C"/>
<path d="M274.27 172.923L273.764 175.791L293.607 179.29L294.112 176.421L274.27 172.923Z" fill="#A3257C"/>
<path d="M176.134 11.5045L172.632 31.3462L175.5 31.8524L179.002 12.0107L176.134 11.5045Z" fill="#A3257C"/>
<path d="M129.849 274.064L126.343 293.906L129.211 294.412L132.717 274.571L129.849 274.064Z" fill="#A3257C"/>
</g>
<path d="M229.075 154.995L274.129 151.524L222.375 141.368L162.059 129.533C162.275 139.432 162.863 148.782 163.776 157.614C163.776 157.634 163.78 157.655 163.783 157.675C163.783 157.699 163.786 157.72 163.79 157.744C164.374 163.366 167.2 168.518 171.617 172.047C175.933 175.497 182.4 179.492 192.023 183.958L196.79 200.238L168.8 188.89C197.119 315.314 303.725 306.794 303.725 306.794L229.075 154.995Z" fill="#A3257C"/>
<path d="M205.568 107.194L155.606 5.59718L152.361 -1L149.116 5.59718L99.1541 107.191L141.996 88.4429L142.659 48.5406C142.659 43.2032 146.986 32.6552 152.327 32.6552C157.667 32.6552 161.994 43.2032 161.994 48.5406L163.186 88.4155L205.564 107.194H205.568Z" fill="#A3257C"/>
<path d="M30.5963 151.524L75.6501 154.995L1 306.794C1 306.794 107.606 315.314 135.924 188.89L107.935 200.238L112.702 183.958C122.325 179.492 128.791 175.497 133.108 172.047C137.525 168.518 140.351 163.366 140.935 157.744C140.935 157.72 140.938 157.699 140.942 157.675C140.942 157.655 140.945 157.634 140.949 157.614C141.866 148.785 142.449 139.435 142.666 129.533L82.3503 141.368L30.5963 151.524Z" fill="#A3257C"/>
</g>
<defs>
<clipPath id="clip0_71_2198">
<rect width="305" height="305" fill="white"/>
</clipPath>
<clipPath id="clip1_71_2198">
<rect x="9.28882" y="9.56812" width="286.777" height="286.777" rx="13.8388" fill="white"/>
</clipPath>
</defs>
</svg>
