<svg width="32" height="32" viewBox="0 0 32 32" fill="none" xmlns="http://www.w3.org/2000/svg">
<path d="M14.325 8.317C14.751 6.561 17.249 6.561 17.675 8.317C17.7389 8.5808 17.8642 8.82578 18.0407 9.032C18.2172 9.23822 18.4399 9.39985 18.6907 9.50375C18.9414 9.60764 19.2132 9.65085 19.4838 9.62987C19.7544 9.60889 20.0162 9.5243 20.248 9.383C21.791 8.443 23.558 10.209 22.618 11.753C22.4769 11.9847 22.3924 12.2463 22.3715 12.5168C22.3506 12.7872 22.3938 13.0588 22.4975 13.3094C22.6013 13.56 22.7627 13.7826 22.9687 13.9591C23.1747 14.1355 23.4194 14.2609 23.683 14.325C25.439 14.751 25.439 17.249 23.683 17.675C23.4192 17.7389 23.1742 17.8642 22.968 18.0407C22.7618 18.2172 22.6001 18.4399 22.4963 18.6907C22.3924 18.9414 22.3491 19.2132 22.3701 19.4838C22.3911 19.7544 22.4757 20.0162 22.617 20.248C23.557 21.791 21.791 23.558 20.247 22.618C20.0153 22.4769 19.7537 22.3924 19.4832 22.3715C19.2128 22.3506 18.9412 22.3938 18.6906 22.4975C18.44 22.6013 18.2174 22.7627 18.0409 22.9687C17.8645 23.1747 17.7391 23.4194 17.675 23.683C17.249 25.439 14.751 25.439 14.325 23.683C14.2611 23.4192 14.1358 23.1742 13.9593 22.968C13.7828 22.7618 13.5601 22.6001 13.3093 22.4963C13.0586 22.3924 12.7868 22.3491 12.5162 22.3701C12.2456 22.3911 11.9838 22.4757 11.752 22.617C10.209 23.557 8.442 21.791 9.382 20.247C9.5231 20.0153 9.60755 19.7537 9.62848 19.4832C9.64942 19.2128 9.60624 18.9412 9.50247 18.6906C9.3987 18.44 9.23726 18.2174 9.03127 18.0409C8.82529 17.8645 8.58056 17.7391 8.317 17.675C6.561 17.249 6.561 14.751 8.317 14.325C8.5808 14.2611 8.82578 14.1358 9.032 13.9593C9.23822 13.7828 9.39985 13.5601 9.50375 13.3093C9.60764 13.0586 9.65085 12.7868 9.62987 12.5162C9.60889 12.2456 9.5243 11.9838 9.383 11.752C8.443 10.209 10.209 8.442 11.753 9.382C12.753 9.99 14.049 9.452 14.325 8.317Z" stroke="#141517" stroke-width="2" stroke-linecap="round" stroke-linejoin="round"/>
<path d="M13 16C13 16.7956 13.3161 17.5587 13.8787 18.1213C14.4413 18.6839 15.2044 19 16 19C16.7956 19 17.5587 18.6839 18.1213 18.1213C18.6839 17.5587 19 16.7956 19 16C19 15.2044 18.6839 14.4413 18.1213 13.8787C17.5587 13.3161 16.7956 13 16 13C15.2044 13 14.4413 13.3161 13.8787 13.8787C13.3161 14.4413 13 15.2044 13 16Z" stroke="#141517" stroke-width="2" stroke-linecap="round" stroke-linejoin="round"/>
</svg>
