<svg width="20" height="18" viewBox="0 0 20 18" fill="none" xmlns="http://www.w3.org/2000/svg">
<path fill-rule="evenodd" clip-rule="evenodd" d="M10 0C10.5523 0 11 0.447715 11 1V2C11 2.55228 10.5523 3 10 3C9.44771 3 9 2.55228 9 2V1C9 0.447715 9.44771 0 10 0ZM2.89287 2.89299C3.28339 2.50247 3.91656 2.50247 4.30708 2.89299L5.00708 3.59299C5.39761 3.98352 5.39761 4.61668 5.00708 5.0072C4.61656 5.39773 3.98339 5.39773 3.59287 5.0072L2.89287 4.3072C2.50234 3.91668 2.50234 3.28352 2.89287 2.89299ZM17.1071 2.89299C17.4976 3.28351 17.4976 3.91668 17.1071 4.3072L16.4071 5.0072C16.0166 5.39773 15.3834 5.39773 14.9929 5.00721C14.6024 4.61668 14.6024 3.98352 14.9929 3.59299L15.6929 2.89299C16.0834 2.50247 16.7166 2.50247 17.1071 2.89299ZM10 7C9.20435 7 8.44129 7.31607 7.87868 7.87868C7.31607 8.44129 7 9.20435 7 10C7 10.5523 6.55228 11 6 11C5.44772 11 5 10.5523 5 10C5 8.67392 5.52678 7.40215 6.46447 6.46447C7.40215 5.52678 8.67392 5 10 5C11.3261 5 12.5979 5.52678 13.5355 6.46447C14.4732 7.40215 15 8.67392 15 10C15 10.5523 14.5523 11 14 11C13.4477 11 13 10.5523 13 10C13 9.20435 12.6839 8.44129 12.1213 7.87868C11.5587 7.31607 10.7956 7 10 7ZM0 10C0 9.44771 0.447715 9 1 9H2C2.55228 9 3 9.44771 3 10C3 10.5523 2.55228 11 2 11H1C0.447715 11 0 10.5523 0 10ZM17 10C17 9.44771 17.4477 9 18 9H19C19.5523 9 20 9.44771 20 10C20 10.5523 19.5523 11 19 11H18C17.4477 11 17 10.5523 17 10ZM0 14C0 13.4477 0.447715 13 1 13H19C19.5523 13 20 13.4477 20 14C20 14.5523 19.5523 15 19 15H1C0.447715 15 0 14.5523 0 14ZM4 17C4 16.4477 4.44772 16 5 16H10C10.5523 16 11 16.4477 11 17C11 17.5523 10.5523 18 10 18H5C4.44772 18 4 17.5523 4 17ZM13 17C13 16.4477 13.4477 16 14 16H15C15.5523 16 16 16.4477 16 17C16 17.5523 15.5523 18 15 18H14C13.4477 18 13 17.5523 13 17Z" fill="#141517"/>
</svg>
