<svg width="21" height="20" viewBox="0 0 21 20" fill="none" xmlns="http://www.w3.org/2000/svg">
<path fill-rule="evenodd" clip-rule="evenodd" d="M10.9819 0.04654C11.6237 -0.0586062 12.2821 0.0171294 12.8832 0.265252C13.4843 0.513374 14.0044 0.924069 14.3852 1.45127C14.766 1.97848 14.9923 2.60134 15.0389 3.24999C15.0854 3.89865 14.9503 4.54744 14.6487 5.12361C14.3471 5.69978 13.891 6.18052 13.3314 6.51193C12.7749 6.84157 12.1379 7.01049 11.4912 7.00003H3C2.44772 7.00003 2 6.55232 2 6.00003C2 5.44775 2.44772 5.00003 3 5.00003H11.5L11.5191 5.00022C11.7978 5.00555 12.0724 4.93314 12.3122 4.79111C12.552 4.64908 12.7475 4.44304 12.8768 4.19611C13.006 3.94919 13.0639 3.67113 13.044 3.39313C13.024 3.11514 12.927 2.8482 12.7638 2.62225C12.6007 2.39631 12.3778 2.2203 12.1201 2.11396C11.8625 2.00762 11.5803 1.97516 11.3053 2.02023C11.0303 2.06529 10.7732 2.18609 10.563 2.36908C10.3528 2.55207 10.1977 2.79001 10.1151 3.05622C9.95155 3.58372 9.39132 3.87874 8.86382 3.71516C8.33631 3.55159 8.04129 2.99135 8.20487 2.46385C8.39748 1.8427 8.75935 1.28751 9.24987 0.860531C9.74039 0.433555 10.3402 0.151686 10.9819 0.04654ZM17.3122 11.2089C17.0724 11.0669 16.7978 10.9945 16.5191 10.9998L16.5 11H1C0.447715 11 0 10.5523 0 9.99997C0 9.44768 0.447715 8.99997 1 8.99997H16.4912C17.1379 8.98951 17.7749 9.15843 18.3314 9.48807C18.891 9.81948 19.3471 10.3002 19.6487 10.8764C19.9503 11.4526 20.0854 12.1014 20.0389 12.75C19.9923 13.3987 19.766 14.0215 19.3852 14.5487C19.0044 15.0759 18.4843 15.4866 17.8832 15.7347C17.2821 15.9829 16.6237 16.0586 15.9819 15.9535C15.3402 15.8483 14.7404 15.5664 14.2499 15.1395C13.7593 14.7125 13.3975 14.1573 13.2049 13.5362C13.0413 13.0086 13.3363 12.4484 13.8638 12.2848C14.3913 12.1213 14.9516 12.4163 15.1151 12.9438C15.1977 13.21 15.3528 13.4479 15.563 13.6309C15.7732 13.8139 16.0303 13.9347 16.3053 13.9798C16.5803 14.0248 16.8625 13.9924 17.1201 13.886C17.3778 13.7797 17.6007 13.6037 17.7638 13.3777C17.927 13.1518 18.024 12.8849 18.044 12.6069C18.0639 12.3289 18.006 12.0508 17.8768 11.8039C17.7475 11.557 17.552 11.3509 17.3122 11.2089ZM8.31223 15.2089C8.07242 15.0669 7.79779 14.9945 7.51913 14.9998L7.5 15H2C1.44772 15 1 14.5523 1 14C1 13.4477 1.44772 13 2 13H7.49124C8.13789 12.9895 8.77486 13.1584 9.33143 13.4881C9.89098 13.8195 10.3471 14.3002 10.6487 14.8764C10.9503 15.4526 11.0854 16.1014 11.0389 16.75C10.9923 17.3987 10.766 18.0215 10.3852 18.5487C10.0044 19.0759 9.48433 19.4866 8.88321 19.7348C8.28208 19.9829 7.62371 20.0586 6.98194 19.9535C6.34017 19.8483 5.74039 19.5664 5.24987 19.1395C4.75935 18.7125 4.39748 18.1573 4.20487 17.5362C4.04129 17.0086 4.33631 16.4484 4.86382 16.2848C5.39132 16.1213 5.95155 16.4163 6.11513 16.9438C6.19768 17.21 6.35276 17.4479 6.56299 17.6309C6.77321 17.8139 7.03026 17.9347 7.3053 17.9798C7.58035 18.0248 7.8625 17.9924 8.12013 17.886C8.37776 17.7797 8.60066 17.6037 8.76385 17.3777C8.92703 17.1518 9.02403 16.8849 9.04398 16.6069C9.06393 16.3289 9.00603 16.0508 8.87678 15.8039C8.74753 15.557 8.55203 15.3509 8.31223 15.2089Z" fill="#141517"/>
</svg>
