<svg width="18" height="18" viewBox="0 0 18 18" fill="none" xmlns="http://www.w3.org/2000/svg">
<path fill-rule="evenodd" clip-rule="evenodd" d="M4.5 0C6.98526 0 9 2.01472 9 4.5V0H13.5C15.9853 0 18 2.01472 18 4.5C18 6.98526 15.9853 9 13.5 9C15.9853 9 18 11.0147 18 13.5C18 14.734 17.5032 15.8521 16.6988 16.665L16.682 16.682L16.6671 16.6968C15.8539 17.5024 14.7351 18 13.5 18C12.2733 18 11.1613 17.5092 10.3496 16.7132C10.339 16.7029 10.3285 16.6924 10.318 16.682C10.3081 16.6721 10.2983 16.6622 10.2886 16.6523C9.49158 15.8404 9 14.7276 9 13.5C9 15.9853 6.98526 18 4.5 18C2.01472 18 0 15.9853 0 13.5V9H4.5C2.01472 9 0 6.98526 0 4.5C0 2.01472 2.01472 0 4.5 0ZM8.1 4.5C8.1 6.48823 6.48823 8.1 4.5 8.1V0.9C6.48823 0.9 8.1 2.51177 8.1 4.5ZM17.1 13.5C17.1 11.5118 15.4882 9.9 13.5 9.9C11.5118 9.9 9.9 11.5118 9.9 13.5H17.1ZM0.9 9.9V13.5C0.9 15.4882 2.51177 17.1 4.5 17.1C6.48823 17.1 8.1 15.4882 8.1 13.5V9.9H0.9ZM9.9 8.1V0.9H13.5C15.4882 0.9 17.1 2.51177 17.1 4.5C17.1 6.48823 15.4882 8.1 13.5 8.1H9.9Z" fill="#5417D7"/>
</svg>
