<svg width="11" height="8" viewBox="0 0 11 8" fill="none" xmlns="http://www.w3.org/2000/svg">
<path d="M7.85686 7.85491H5.28317C5.11037 7.85476 4.93886 7.83717 4.77115 7.80297C4.44612 7.73663 4.13534 7.60764 3.85685 7.42152C3.43396 7.13897 3.10435 6.73742 2.90974 6.26752C2.84664 6.11513 2.79861 5.95781 2.76595 5.79777C2.69786 5.46425 2.69637 5.11886 2.76343 4.7818C2.86264 4.28299 3.10754 3.82481 3.46718 3.46523C3.82677 3.10559 4.28494 2.86068 4.78375 2.76148C4.79938 2.75834 4.81497 2.75541 4.8306 2.75258C4.98134 2.72553 5.13357 2.71205 5.28543 2.71205C5.62152 2.71205 5.95596 2.77793 6.26947 2.90779C6.73932 3.1024 7.14093 3.432 7.42348 3.85485C7.70608 4.27774 7.85686 4.77491 7.85686 5.28348H5.79972C5.79972 5.18176 5.76958 5.08235 5.71306 4.99775C5.65654 4.9132 5.57621 4.84726 5.48225 4.80833C5.38829 4.7694 5.28487 4.75922 5.1851 4.77907C5.08533 4.79892 4.99368 4.84788 4.92178 4.91983C4.84983 4.99173 4.80087 5.08337 4.78102 5.18315C4.76117 5.28292 4.77135 5.38634 4.81029 5.4803C4.84922 5.57426 4.91515 5.65459 4.9997 5.71111C5.0843 5.76763 5.18371 5.79777 5.28543 5.79777H7.85686C7.92439 5.79777 7.9913 5.78445 8.05368 5.75863C8.11606 5.73276 8.17274 5.69491 8.22051 5.64713C8.26829 5.59936 8.30614 5.54268 8.33201 5.4803C8.35783 5.41792 8.37115 5.35101 8.37115 5.28348C8.37115 4.4651 8.04607 3.68025 7.46734 3.10157C6.88867 2.52285 6.10382 2.19777 5.28543 2.19777C5.19667 2.19777 5.10832 2.20157 5.02058 2.20913C4.80494 2.2277 4.59295 2.26884 4.38801 2.33117C4.18635 2.39243 3.99149 2.47425 3.8065 2.57525C3.59462 2.69097 3.39569 2.83188 3.21441 2.99604C3.17666 3.03019 3.13968 3.06537 3.10353 3.10157C2.85034 3.3547 2.64571 3.64739 2.49559 3.96501C2.42056 4.12382 2.3591 4.28885 2.31209 4.45836C2.2583 4.65214 2.22333 4.85169 2.20826 5.05432C2.2026 5.13033 2.19972 5.20675 2.19972 5.28348C2.19972 5.68673 2.27877 6.08813 2.4346 6.46433C2.66818 7.0282 3.06367 7.51008 3.57111 7.84915C3.57399 7.85111 3.57687 7.85301 3.57975 7.85491H2.71401C2.37633 7.85491 2.04194 7.78841 1.72997 7.65917C1.41801 7.52993 1.13453 7.34052 0.89575 7.10174C0.656967 6.86296 0.467555 6.57948 0.338315 6.26752C0.209075 5.95555 0.142578 5.62116 0.142578 5.28348C0.142578 3.91949 0.684429 2.61141 1.64887 1.64692C2.61336 0.682476 3.92145 0.140625 5.28543 0.140625C6.64942 0.140625 7.95751 0.682476 8.922 1.64692C9.88644 2.61141 10.4283 3.91949 10.4283 5.28348C10.4283 5.62116 10.3618 5.95555 10.2326 6.26752C10.1033 6.57948 9.9139 6.86296 9.67512 7.10174C9.43634 7.34052 9.15286 7.52993 8.8409 7.65917C8.52893 7.78841 8.19454 7.85491 7.85686 7.85491Z" fill="#3064E8"/>
</svg>
