<svg width="18" height="20" viewBox="0 0 18 20" fill="none" xmlns="http://www.w3.org/2000/svg">
<path fill-rule="evenodd" clip-rule="evenodd" d="M9.00009 2C8.73487 2 8.48052 2.10536 8.29298 2.29289C8.10545 2.48043 8.00009 2.73478 8.00009 3C8.00009 3.38669 7.77714 3.73873 7.42756 3.90403C6.44321 4.36948 5.60408 5.09402 5.00009 6C4.40028 6.89972 4.05484 7.94469 4.00009 9.02436V12C4.00009 12.0402 3.99767 12.0803 3.99285 12.1202C3.91259 12.7832 3.70049 13.4222 3.37031 14H14.6299C14.2997 13.4222 14.0876 12.7832 14.0073 12.1202C14.0025 12.0803 14.0001 12.0402 14.0001 12V9.02436C13.9453 7.9447 13.5999 6.89972 13.0001 6C12.3961 5.09402 11.557 4.36948 10.5726 3.90403C10.223 3.73873 10.0001 3.38669 10.0001 3C10.0001 2.73478 9.89473 2.48043 9.7072 2.29289C9.51966 2.10536 9.26531 2 9.00009 2ZM11.0001 16H7.00009C7.00009 16.5304 7.2108 17.0391 7.58588 17.4142C7.96095 17.7893 8.46966 18 9.00009 18C9.53053 18 10.0392 17.7893 10.4143 17.4142C10.7894 17.0391 11.0001 16.5304 11.0001 16ZM5.00009 16C5.00009 17.0609 5.42152 18.0783 6.17166 18.8284C6.92181 19.5786 7.93923 20 9.00009 20C10.061 20 11.0784 19.5786 11.8285 18.8284C12.5787 18.0783 13.0001 17.0609 13.0001 16H17.0001C17.4542 16 17.8514 15.694 17.9671 15.2548C18.0828 14.8156 17.888 14.3536 17.4928 14.1298C17.0841 13.8984 16.7355 13.5742 16.475 13.1834C16.2248 12.8082 16.0626 12.3815 16.0001 11.9354V9C16.0001 8.98437 15.9997 8.96873 15.999 8.95311C15.9309 7.50291 15.4695 6.09857 14.6642 4.8906C13.9637 3.83991 13.0261 2.97224 11.9301 2.35572C11.808 1.80059 11.5296 1.28688 11.1214 0.87868C10.5588 0.31607 9.79574 0 9.00009 0C8.20444 0 7.44138 0.31607 6.87877 0.87868C6.47057 1.28688 6.19216 1.80059 6.07008 2.35572C4.97412 2.97224 4.03645 3.83991 3.33599 4.8906C2.53068 6.09857 2.06926 7.50291 2.00119 8.95311C2.00046 8.96873 2.00009 8.98437 2.00009 9V11.9353C1.93762 12.3815 1.7754 12.8082 1.52523 13.1834C1.2647 13.5742 0.916042 13.8984 0.507338 14.1298C0.112144 14.3536 -0.0826186 14.8156 0.0330941 15.2548C0.148807 15.694 0.545934 16 1.00009 16H5.00009Z" fill="#141517"/>
</svg>
