<svg width="21" height="20" viewBox="0 0 21 20" fill="none" xmlns="http://www.w3.org/2000/svg">
<path fill-rule="evenodd" clip-rule="evenodd" d="M8.04371 2.15612C8.35627 1.84356 8.78019 1.66797 9.22222 1.66797H12.5556C12.9976 1.66797 13.4215 1.84356 13.7341 2.15612C14.0466 2.46868 14.2222 2.89261 14.2222 3.33464V5.0013H16.7125C16.7183 5.00124 16.7242 5.00124 16.7301 5.0013H17.5556C18.0158 5.0013 18.3889 5.3744 18.3889 5.83464C18.3889 6.29487 18.0158 6.66797 17.5556 6.66797H17.489L16.7219 15.8728C16.712 16.522 16.4498 17.1426 15.99 17.6024C15.5211 18.0712 14.8853 18.3346 14.2222 18.3346H7.55555C6.89251 18.3346 6.25663 18.0712 5.78779 17.6024C5.32794 17.1426 5.06574 16.522 5.05584 15.8728L4.28877 6.66797H4.22222C3.76198 6.66797 3.38889 6.29487 3.38889 5.83464C3.38889 5.3744 3.76198 5.0013 4.22222 5.0013H5.04767C5.05356 5.00124 5.05943 5.00124 5.0653 5.0013H7.55555V3.33464C7.55555 2.89261 7.73115 2.46868 8.04371 2.15612ZM5.96122 6.66797L6.71934 15.7654C6.72126 15.7884 6.72222 15.8115 6.72222 15.8346C6.72222 16.0556 6.81002 16.2676 6.9663 16.4239C7.12258 16.5802 7.33454 16.668 7.55555 16.668H14.2222C14.4432 16.668 14.6552 16.5802 14.8115 16.4239C14.9678 16.2676 15.0556 16.0556 15.0556 15.8346C15.0556 15.8115 15.0565 15.7884 15.0584 15.7654L15.8166 6.66797H5.96122ZM12.5556 5.0013H9.22222V3.33464H12.5556V5.0013ZM9.22222 8.33464C9.68246 8.33464 10.0556 8.70773 10.0556 9.16797V14.168C10.0556 14.6282 9.68246 15.0013 9.22222 15.0013C8.76198 15.0013 8.38889 14.6282 8.38889 14.168V9.16797C8.38889 8.70773 8.76198 8.33464 9.22222 8.33464ZM12.5556 8.33464C13.0158 8.33464 13.3889 8.70773 13.3889 9.16797V14.168C13.3889 14.6282 13.0158 15.0013 12.5556 15.0013C12.0953 15.0013 11.7222 14.6282 11.7222 14.168V9.16797C11.7222 8.70773 12.0953 8.33464 12.5556 8.33464Z" fill="black"/>
</svg>
