<svg width="15" height="15" viewBox="0 0 15 15" fill="none" xmlns="http://www.w3.org/2000/svg">
<path fill-rule="evenodd" clip-rule="evenodd" d="M9.38296 0.993027C9.98127 0.39472 10.7928 0.0585938 11.6389 0.0585938C12.485 0.0585938 13.2965 0.39472 13.8948 0.993027C14.4931 1.59134 14.8292 2.40282 14.8292 3.24895C14.8292 4.09508 14.4931 4.90656 13.8948 5.50487L5.14481 14.2549C4.98853 14.4112 4.77657 14.4989 4.55555 14.4989H1.22222C0.761982 14.4989 0.388885 14.1259 0.388885 13.6656V10.3323C0.388885 10.1113 0.476683 9.89931 0.632963 9.74303L8.54425 1.83174C8.54603 1.82992 8.54783 1.82812 8.54963 1.82631C8.55143 1.82451 8.55324 1.82272 8.55506 1.82093L9.38296 0.993027ZM9.13891 3.5941L2.05555 10.6775V12.8323H4.21037L11.2937 5.74893L9.13891 3.5941ZM12.4722 4.57041L10.3174 2.41559L10.5615 2.17154C10.8472 1.88579 11.2348 1.72526 11.6389 1.72526C12.043 1.72526 12.4305 1.88579 12.7163 2.17154C13.002 2.45729 13.1626 2.84484 13.1626 3.24895C13.1626 3.65306 13.002 4.04061 12.7163 4.32636L12.4722 4.57041Z" fill="black"/>
</svg>
