<svg width="20" height="20" viewBox="0 0 20 20" fill="none" xmlns="http://www.w3.org/2000/svg">
<path fill-rule="evenodd" clip-rule="evenodd" d="M4.30747 3.38046C4.3961 3.34937 4.48934 3.3335 4.58326 3.3335H15.4166C15.5105 3.3335 15.6038 3.34937 15.6924 3.38046C15.9324 3.46464 16.15 3.60264 16.3284 3.7839C16.5069 3.96515 16.6415 4.18485 16.7219 4.42616C16.8024 4.66746 16.8265 4.92398 16.7925 5.17607C16.7585 5.42814 16.6672 5.66909 16.5257 5.88046C16.5029 5.91459 16.4775 5.94699 16.4499 5.97739L12.4999 10.3223V15.8335C12.4999 16.1491 12.3216 16.4377 12.0393 16.5789C11.757 16.72 11.4191 16.6895 11.1666 16.5002L7.83326 14.0002C7.62342 13.8428 7.49993 13.5958 7.49993 13.3335V10.3223L3.54998 5.97739C3.52234 5.94699 3.49699 5.91459 3.47414 5.88046C3.33262 5.66909 3.24136 5.42814 3.20735 5.17607C3.17334 4.92399 3.19747 4.66747 3.27791 4.42616C3.35835 4.18485 3.49295 3.96515 3.67141 3.7839C3.84986 3.60264 4.06744 3.46464 4.30747 3.38046ZM4.91402 5.00016L8.94988 9.4396C9.08933 9.593 9.16659 9.79286 9.16659 10.0002V12.9168L10.8333 14.1668V10.0002C10.8333 9.79286 10.9105 9.593 11.05 9.4396L15.0858 5.00016H4.91402Z" fill="#141517"/>
</svg>
