<svg width="14" height="14" viewBox="0 0 14 14" fill="none" xmlns="http://www.w3.org/2000/svg">
<path fill-rule="evenodd" clip-rule="evenodd" d="M1.30747 0.37899C1.3961 0.347908 1.48934 0.332031 1.58326 0.332031H12.4166C12.5105 0.332031 12.6038 0.347908 12.6924 0.37899C12.9324 0.463171 13.15 0.601176 13.3284 0.78243C13.5069 0.963686 13.6415 1.18338 13.7219 1.42469C13.8024 1.666 13.8265 1.92252 13.7925 2.1746C13.7585 2.42668 13.6672 2.66763 13.5257 2.87899C13.5029 2.91313 13.4775 2.94553 13.4499 2.97593L9.49993 7.32087V12.832C9.49993 13.1477 9.32159 13.4362 9.03927 13.5774C8.75695 13.7185 8.41911 13.6881 8.16659 13.4987L4.83326 10.9987C4.62342 10.8413 4.49993 10.5943 4.49993 10.332V7.32087L0.549977 2.97593C0.522342 2.94553 0.496993 2.91313 0.474137 2.87899C0.332622 2.66763 0.241363 2.42668 0.20735 2.1746C0.173338 1.92252 0.197474 1.666 0.277911 1.42469C0.358347 1.18338 0.49295 0.963685 0.671407 0.78243C0.849864 0.601175 1.06744 0.463171 1.30747 0.37899ZM1.91402 1.9987L5.94988 6.43814C6.08933 6.59153 6.16659 6.79139 6.16659 6.9987V9.91537L7.83326 11.1654V6.9987C7.83326 6.79139 7.91053 6.59153 8.04998 6.43814L12.0858 1.9987H1.91402Z" fill="#141517"/>
</svg>
