<svg width="20" height="20" viewBox="0 0 20 20" fill="none" xmlns="http://www.w3.org/2000/svg">
<path fill-rule="evenodd" clip-rule="evenodd" d="M4.30747 3.38094C4.3961 3.34986 4.48934 3.33398 4.58326 3.33398H15.4166C15.5105 3.33398 15.6038 3.34986 15.6924 3.38094C15.9324 3.46512 16.15 3.60313 16.3284 3.78438C16.5069 3.96564 16.6415 4.18534 16.7219 4.42665C16.8024 4.66795 16.8265 4.92447 16.7925 5.17655C16.7585 5.42863 16.6672 5.66958 16.5257 5.88094C16.5029 5.91508 16.4775 5.94748 16.4499 5.97788L12.4999 10.3228V15.834C12.4999 16.1496 12.3216 16.4382 12.0393 16.5793C11.757 16.7205 11.4191 16.69 11.1666 16.5007L7.83326 14.0007C7.62342 13.8433 7.49993 13.5963 7.49993 13.334V10.3228L3.54998 5.97788C3.52234 5.94748 3.49699 5.91508 3.47414 5.88094C3.33262 5.66958 3.24136 5.42863 3.20735 5.17655C3.17334 4.92448 3.19747 4.66796 3.27791 4.42665C3.35835 4.18534 3.49295 3.96564 3.67141 3.78438C3.84986 3.60313 4.06744 3.46512 4.30747 3.38094ZM4.91402 5.00065L8.94988 9.44009C9.08933 9.59348 9.16659 9.79335 9.16659 10.0007V12.9173L10.8333 14.1673V10.0007C10.8333 9.79335 10.9105 9.59348 11.05 9.44009L15.0858 5.00065H4.91402Z" fill="#141517"/>
</svg>
