<svg width="14" height="15" viewBox="0 0 14 15" fill="none" xmlns="http://www.w3.org/2000/svg">
<path fill-rule="evenodd" clip-rule="evenodd" d="M4.66667 1.66536C4.29848 1.66536 4 1.96384 4 2.33203C4 2.70022 4.29848 2.9987 4.66667 2.9987H6C6.36819 2.9987 6.66667 2.70022 6.66667 2.33203C6.66667 1.96384 6.36819 1.66536 6 1.66536H4.66667ZM2.78047 1.66536C3.05503 0.88857 3.79585 0.332031 4.66667 0.332031H6C6.87081 0.332031 7.61164 0.88857 7.8862 1.66536H8.66667C9.1971 1.66536 9.70581 1.87608 10.0809 2.25115C10.456 2.62622 10.6667 3.13493 10.6667 3.66536V6.33203C10.6667 6.70022 10.3682 6.9987 10 6.9987C9.63181 6.9987 9.33333 6.70022 9.33333 6.33203V3.66536C9.33333 3.48855 9.26309 3.31898 9.13807 3.19396C9.01305 3.06894 8.84348 2.9987 8.66667 2.9987H7.8862C7.61164 3.77549 6.87081 4.33203 6 4.33203H4.66667C3.79585 4.33203 3.05503 3.77549 2.78047 2.9987H2C1.82319 2.9987 1.65362 3.06894 1.5286 3.19396C1.40357 3.31898 1.33333 3.48855 1.33333 3.66536V11.6654C1.33333 11.8422 1.40357 12.0117 1.5286 12.1368C1.65362 12.2618 1.82319 12.332 2 12.332H5.798C6.16619 12.332 6.46467 12.6305 6.46467 12.9987C6.46467 13.3669 6.16619 13.6654 5.798 13.6654H2C1.46957 13.6654 0.960859 13.4546 0.585786 13.0796C0.210714 12.7045 0 12.1958 0 11.6654V3.66536C0 3.13493 0.210714 2.62622 0.585786 2.25115C0.960859 1.87608 1.46957 1.66536 2 1.66536H2.78047ZM2.66667 6.33203C2.66667 5.96384 2.96514 5.66536 3.33333 5.66536H6C6.36819 5.66536 6.66667 5.96384 6.66667 6.33203C6.66667 6.70022 6.36819 6.9987 6 6.9987H3.33333C2.96514 6.9987 2.66667 6.70022 2.66667 6.33203ZM9.33333 9.1125C8.55654 9.38706 8 10.1279 8 10.9987C8 12.1033 8.89543 12.9987 10 12.9987C10.8708 12.9987 11.6116 12.4422 11.8862 11.6654H10C9.63181 11.6654 9.33333 11.3669 9.33333 10.9987V9.1125ZM10.6667 9.1125V10.332H11.8862C11.6853 9.76375 11.2349 9.31336 10.6667 9.1125ZM6.66667 10.9987C6.66667 9.15775 8.15905 7.66536 10 7.66536C11.8409 7.66536 13.3333 9.15775 13.3333 10.9987C13.3333 12.8396 11.8409 14.332 10 14.332C8.15905 14.332 6.66667 12.8396 6.66667 10.9987ZM2.66667 8.9987C2.66667 8.63051 2.96514 8.33203 3.33333 8.33203H5.33333C5.70152 8.33203 6 8.63051 6 8.9987C6 9.36689 5.70152 9.66536 5.33333 9.66536H3.33333C2.96514 9.66536 2.66667 9.36689 2.66667 8.9987Z" fill="#141517"/>
</svg>
